PathFileType	4	(x/y/z)	S06_P20_T09
DataRate	CameraRate	NumFrames	NumMarkers	Units	OrigDataRate	OrigDataStartFrame	OrigNumFrames
240	240	9	51	mm	240	42	332
Frame#	Time	Sternum			R.Acromium			L.Acromium			Top.Head			R.ASIS			L.ASIS			R.PSIS			L.PSIS			R.Great.Tro			L.Great.Tro			R.Iliac.Crest			L.Iliac.Crest			V.Sacral			R.Thigh.Upper.Post			R.Thigh.Lower.Ant			R.Thigh.Lower.Post			R.Thigh.Upper.Ant			R.Knee.Lat			R.Knee.Med			R.Shank.Upper.Post			R.Shank.Lower.Ant			R.Shank.Lower.Post			R.Shank.Upper.Ant			R.Ankle.Lat			R.Ankle.Med			R.Heel.Upper			R.Heel.Med			R.Heel.Lat			R.Toe.Lat			R.Toe.Med			R.Toe.Tip			L.Thigh.Upper.Post			L.Thigh.Lower.Ant			L.Thigh.Lower.Post			L.Thigh.Upper.Ant			L.Knee.Lat			L.Knee.Med			L.Shank.Upper.Post			L.Shank.Lower.Ant			L.Shank.Lower.Post			L.Shank.Upper.Ant			L.Ankle.Lat			L.Ankle.Med			L.Heel.Upper			L.Heel.Med			L.Heel.Lat			L.Toe.Lat			L.Toe.Med			L.Toe.Tip			Cervical.Spine			Back			
		X1	Y1	Z1	X2	Y2	Z2	X3	Y3	Z3	X4	Y4	Z4	X5	Y5	Z5	X6	Y6	Z6	X7	Y7	Z7	X8	Y8	Z8	X9	Y9	Z9	X10	Y10	Z10	X11	Y11	Z11	X12	Y12	Z12	X13	Y13	Z13	X14	Y14	Z14	X15	Y15	Z15	X16	Y16	Z16	X17	Y17	Z17	X18	Y18	Z18	X19	Y19	Z19	X20	Y20	Z20	X21	Y21	Z21	X22	Y22	Z22	X23	Y23	Z23	X24	Y24	Z24	X25	Y25	Z25	X26	Y26	Z26	X27	Y27	Z27	X28	Y28	Z28	X29	Y29	Z29	X30	Y30	Z30	X31	Y31	Z31	X32	Y32	Z32	X33	Y33	Z33	X34	Y34	Z34	X35	Y35	Z35	X36	Y36	Z36	X37	Y37	Z37	X38	Y38	Z38	X39	Y39	Z39	X40	Y40	Z40	X41	Y41	Z41	X42	Y42	Z42	X43	Y43	Z43	X44	Y44	Z44	X45	Y45	Z45	X46	Y46	Z46	X47	Y47	Z47	X48	Y48	Z48	X49	Y49	Z49	X50	Y50	Z50	X51	Y51	Z51	

42	0.17083	-1069.1	1281.4	306.99	-1186.9	1491.8	476.83	-1198.9	1493.7	125.06	-1120.5	1807	300.84	-1135.4	1043.7	431.59	-1119.6	1046.2	179.41	-1327.4	1070.6	335.02	-1332.3	1077.6	255.02	-1189.6	975.17	482.89	-1210.5	980.52	124.24	-1219.2	1122.8	463.94	-1194.4	1120.6	142.7	-1345.4	1040.3	298.16	-1129.5	734.99	492.91	-1050.9	667.49	462.4	-1114.8	645.9	479.04	-1059.6	758.25	473.2	-1083.3	541.12	468.86	-1063.5	540.66	339.71	-1264.5	414.54	467.77	-1274.5	327.43	441.6	-1323.3	365.61	451.52	-1214.9	374.85	456.52	-1407.1	256.07	427	-1385.9	250.15	340.35	-1479.4	280.85	379.84	-1488.9	255.04	346.04	-1497	250.5	409.81	-1385.4	110.14	441.78	-1351	109.84	326.55	-1298.6	66.143	370.72	-1105.1	724.65	145.18	-1046.7	657.32	210.57	-1108.9	636.04	166.73	-1049.9	749.58	185.57	-1107.9	542.87	185.33	-1087.1	554.79	303.72	-1157.1	317.5	197.23	-1094.1	254.67	204.5	-1164.8	246.41	215.28	-1089.8	324.79	191.54	-1124.7	104.48	221.36	-1120.6	111.04	311.96	-1201.2	70.585	263.55	-1198.2	44.679	296.28	-1193.9	44.984	234.55	-1014.1	45.045	205.56	-999.37	50.477	323.99	-926.33	65.162	274.7	-1246	1547.3	302.77	-1317.2	1277.3	303.41
43	0.175	-1064	1281.6	307	-1181.8	1492.1	476.71	-1193.2	1494	124.9	-1114.8	1807.4	300.63	-1130.4	1044.1	431.37	-1114.8	1046.4	179.23	-1322.6	1071	334.92	-1327.6	1078	254.84	-1184.5	975.65	482.78	-1205.7	980.87	124.1	-1214.3	1123.2	463.79	-1189.6	1121	142.6	-1340.5	1040.7	298.04	-1122.2	736.53	492.68	-1042.3	669.84	462.16	-1105.9	647.42	478.74	-1052	760.46	472.72	-1073.1	543.1	468.63	-1054	542.82	339.35	-1253.6	415.44	467.95	-1263.9	327.9	441.57	-1312.4	366.12	451.85	-1203.7	376.15	456.54	-1395.3	256.29	427.47	-1374.5	250.39	340.71	-1468.4	279.88	380.21	-1477.6	253.61	346.6	-1485.5	249.44	410.46	-1371.7	111.12	442.99	-1337.6	110.58	327.52	-1284.6	67.718	371.85	-1101.6	724.56	145.01	-1043.4	656.97	210.23	-1105.8	635.99	166.63	-1046.1	749.22	185.12	-1105.2	542.8	185.32	-1084	554.68	303.65	-1155.7	317.68	197.41	-1093.1	254.51	204.54	-1163.8	246.66	215.48	-1088.4	324.58	191.55	-1124.5	104.55	221.49	-1120.3	111.06	312.11	-1201.2	70.703	263.61	-1198.2	44.769	296.32	-1193.8	45.094	234.58	-1014.1	45.009	205.55	-999.13	50.313	323.93	-926.22	64.767	274.74	-1240.5	1547.7	302.57	-1312.1	1277.8	303.16
44	0.17917	-1058.9	1281.8	307	-1176.6	1492.4	476.59	-1187.6	1494.3	124.75	-1109.2	1807.8	300.43	-1125.4	1044.7	431.17	-1109.9	1046.7	179.05	-1317.8	1071.4	334.81	-1323	1078.4	254.66	-1179.4	976.19	482.67	-1200.9	981.22	123.97	-1209.4	1123.6	463.65	-1184.7	1121.3	142.5	-1335.6	1041.1	297.94	-1115	738.12	492.41	-1033.9	672.22	461.89	-1097.2	649	478.41	-1044.5	762.71	472.21	-1063.1	545.14	468.34	-1044.6	545.02	338.96	-1242.7	416.18	468.06	-1253	328.3	441.53	-1301.4	366.41	452.1	-1192.5	377.37	456.53	-1383.3	256.17	427.89	-1362.9	250.32	341.03	-1457.2	278.5	380.53	-1466.1	251.76	347.1	-1473.6	247.95	411.06	-1357.6	111.83	444.17	-1323.9	111.08	328.42	-1270.2	69.198	372.94	-1098.3	724.47	144.87	-1040.1	656.59	209.9	-1102.9	635.94	166.55	-1042.3	748.83	184.7	-1102.6	542.72	185.33	-1081.1	554.57	303.6	-1154.5	317.86	197.6	-1092.1	254.36	204.59	-1162.9	246.9	215.69	-1087.1	324.38	191.57	-1124.3	104.62	221.62	-1120.1	111.09	312.26	-1201.2	70.826	263.68	-1198.2	44.864	296.37	-1193.8	45.204	234.62	-1014	44.977	205.54	-998.89	50.173	323.87	-926.12	64.406	274.77	-1235	1548.1	302.38	-1307.1	1278.3	302.93
45	0.18333	-1053.8	1282.1	307	-1171.5	1492.7	476.48	-1182.1	1494.6	124.6	-1103.6	1808.2	300.23	-1120.3	1045.2	431.01	-1105	1046.9	178.89	-1313	1071.9	334.71	-1318.3	1078.9	254.49	-1174.3	976.77	482.57	-1196	981.58	123.87	-1204.5	1124.1	463.5	-1179.8	1121.7	142.41	-1330.7	1041.5	297.83	-1107.9	739.75	492.11	-1025.6	674.64	461.6	-1088.6	650.64	478.04	-1037	764.99	471.65	-1053.2	547.21	468.01	-1035.3	547.23	338.55	-1231.9	416.77	468.1	-1241.8	328.64	441.51	-1290.3	366.48	452.28	-1181.3	378.5	456.5	-1371.1	255.73	428.26	-1351.1	249.95	341.3	-1445.8	276.72	380.8	-1454.4	249.51	347.54	-1461.5	246.05	411.61	-1343.1	112.28	445.32	-1309.9	111.34	329.28	-1255.5	70.573	374	-1094.9	724.37	144.76	-1036.9	656.2	209.6	-1100	635.9	166.49	-1038.6	748.44	184.3	-1100.2	542.65	185.35	-1078.2	554.45	303.57	-1153.3	318.04	197.79	-1091.2	254.22	204.65	-1162	247.13	215.9	-1085.9	324.19	191.6	-1124.2	104.69	221.75	-1119.9	111.12	312.4	-1201.2	70.956	263.75	-1198.3	44.964	296.42	-1193.8	45.314	234.67	-1014	44.949	205.53	-998.66	50.051	323.8	-926.03	64.075	274.79	-1229.6	1548.6	302.19	-1302	1278.8	302.7
46	0.1875	-1048.7	1282.4	307	-1166.4	1493.1	476.37	-1176.6	1494.9	124.47	-1098	1808.7	300.04	-1115.2	1045.8	430.88	-1099.9	1047.3	178.73	-1308.2	1072.4	334.62	-1313.5	1079.4	254.33	-1169.3	977.39	482.46	-1191.2	981.95	123.79	-1199.6	1124.6	463.35	-1174.9	1122	142.33	-1325.7	1041.9	297.73	-1100.8	741.39	491.78	-1017.3	677.09	461.29	-1080.1	652.31	477.65	-1029.7	767.27	471.06	-1043.5	549.31	467.64	-1026.1	549.47	338.1	-1221	417.21	468.08	-1230.3	328.89	441.49	-1279.2	366.34	452.4	-1170.1	379.51	456.46	-1358.7	254.97	428.59	-1339.1	249.27	341.53	-1434.2	274.54	381.04	-1442.5	246.88	347.92	-1449.2	243.74	412.12	-1328.3	112.47	446.43	-1295.6	111.37	330.09	-1240.3	71.831	375.01	-1091.7	724.28	144.68	-1033.8	655.8	209.33	-1097.2	635.87	166.45	-1035	748.03	183.94	-1097.8	542.59	185.39	-1075.5	554.33	303.56	-1152.1	318.21	197.97	-1090.3	254.09	204.72	-1161.1	247.35	216.11	-1084.7	324	191.63	-1124	104.77	221.88	-1119.7	111.16	312.54	-1201.3	71.092	263.81	-1198.3	45.068	296.46	-1193.7	45.424	234.71	-1014	44.921	205.51	-998.44	49.947	323.72	-925.94	63.77	274.8	-1224.2	1549	302.02	-1297	1279.4	302.49
47	0.19167	-1043.6	1282.7	307	-1161.3	1493.5	476.26	-1171.2	1495.3	124.35	-1092.4	1809.1	299.86	-1110.1	1046.5	430.79	-1094.9	1047.6	178.59	-1303.4	1072.9	334.52	-1308.8	1079.9	254.17	-1164.2	978.04	482.37	-1186.4	982.34	123.74	-1194.7	1125.2	463.2	-1170	1122.4	142.25	-1320.8	1042.3	297.63	-1093.8	743.05	491.43	-1009.2	679.54	460.95	-1071.7	654.01	477.23	-1022.5	769.56	470.45	-1033.9	551.44	467.24	-1017	551.7	337.63	-1210.2	417.49	467.98	-1218.6	329.05	441.48	-1268	365.99	452.45	-1158.8	380.42	456.39	-1346.1	253.89	428.87	-1326.9	248.3	341.72	-1422.3	271.98	381.24	-1430.4	243.88	348.24	-1436.6	241.05	412.58	-1313.2	112.4	447.5	-1281	111.18	330.85	-1224.8	72.964	375.99	-1088.5	724.2	144.61	-1030.8	655.39	209.08	-1094.5	635.84	166.43	-1031.4	747.61	183.61	-1095.6	542.53	185.44	-1072.9	554.2	303.56	-1151	318.38	198.15	-1089.5	253.97	204.79	-1160.3	247.57	216.3	-1083.6	323.82	191.66	-1123.9	104.85	221.99	-1119.6	111.2	312.67	-1201.3	71.235	263.88	-1198.3	45.177	296.51	-1193.7	45.535	234.76	-1014	44.892	205.49	-998.23	49.857	323.65	-925.86	63.488	274.79	-1218.8	1549.5	301.86	-1291.9	1279.9	302.29
48	0.19583	-1038.5	1283	306.99	-1156.2	1493.9	476.15	-1165.9	1495.7	124.23	-1086.9	1809.6	299.68	-1105	1047.2	430.73	-1089.8	1047.9	178.47	-1298.5	1073.5	334.43	-1304	1080.4	254.02	-1159.2	978.73	482.28	-1181.6	982.75	123.7	-1189.8	1125.8	463.06	-1165	1122.9	142.18	-1315.9	1042.8	297.53	-1086.8	744.72	491.05	-1001.1	681.99	460.58	-1063.4	655.72	476.79	-1015.3	771.84	469.81	-1024.4	553.56	466.8	-1007.9	553.94	337.13	-1199.5	417.61	467.82	-1206.7	329.1	441.48	-1256.8	365.43	452.44	-1147.5	381.22	456.31	-1333.3	252.5	429.11	-1314.5	247.04	341.88	-1410.1	269.05	381.4	-1418.1	240.55	348.5	-1423.8	237.99	412.99	-1297.8	112.1	448.53	-1266	110.78	331.56	-1209	73.967	376.94	-1085.3	724.13	144.57	-1027.8	654.97	208.86	-1091.8	635.82	166.41	-1027.9	747.18	183.31	-1093.4	542.47	185.5	-1070.4	554.06	303.58	-1149.9	318.55	198.31	-1088.6	253.86	204.86	-1159.5	247.79	216.49	-1082.6	323.65	191.69	-1123.7	104.94	222.11	-1119.4	111.25	312.79	-1201.3	71.384	263.94	-1198.3	45.288	296.56	-1193.7	45.645	234.8	-1014	44.862	205.47	-998.04	49.777	323.57	-925.78	63.228	274.77	-1213.4	1549.9	301.7	-1286.9	1280.5	302.1
49	0.2	-1033.3	1283.4	306.99	-1151.1	1494.4	476.03	-1160.6	1496.2	124.13	-1081.4	1810	299.51	-1099.9	1047.9	430.71	-1084.7	1048.3	178.36	-1293.6	1074	334.35	-1299.2	1080.9	253.88	-1154.2	979.44	482.19	-1176.9	983.17	123.67	-1184.8	1126.4	462.92	-1160.1	1123.3	142.12	-1310.9	1043.3	297.44	-1079.9	746.37	490.66	-993.24	684.42	460.18	-1055.2	657.45	476.33	-1008.3	774.1	469.15	-1015.1	555.69	466.33	-998.93	556.18	336.62	-1188.7	417.57	467.6	-1194.7	329.05	441.48	-1245.5	364.66	452.38	-1136.2	381.91	456.22	-1320.3	250.82	429.31	-1301.9	245.5	342	-1397.7	265.76	381.52	-1405.5	236.88	348.69	-1410.7	234.57	413.35	-1282.1	111.56	449.51	-1250.8	110.17	332.24	-1193	74.838	377.86	-1082.1	724.06	144.55	-1024.9	654.55	208.67	-1089.1	635.81	166.4	-1024.4	746.75	183.06	-1091.2	542.42	185.56	-1068	553.92	303.6	-1148.8	318.71	198.45	-1087.8	253.75	204.94	-1158.8	248	216.65	-1081.5	323.48	191.72	-1123.6	105.02	222.21	-1119.3	111.3	312.9	-1201.4	71.54	263.99	-1198.4	45.401	296.6	-1193.7	45.756	234.85	-1014	44.828	205.44	-997.86	49.702	323.51	-925.7	62.986	274.74	-1208.1	1550.4	301.55	-1281.8	1281	301.91
50	0.20417	-1028.2	1283.8	306.99	-1146	1494.9	475.92	-1155.4	1496.7	124.04	-1075.9	1810.5	299.35	-1094.8	1048.7	430.73	-1079.6	1048.7	178.27	-1288.7	1074.6	334.27	-1294.3	1081.5	253.75	-1149.2	980.17	482.12	-1172.1	983.61	123.67	-1179.9	1127	462.8	-1155.1	1123.8	142.07	-1305.9	1043.9	297.34	-1073	748.01	490.25	-985.44	686.83	459.74	-1047.2	659.17	475.86	-1001.3	776.33	468.48	-1006	557.79	465.83	-990.06	558.4	336.08	-1178	417.37	467.31	-1182.6	328.87	441.48	-1234.2	363.7	452.27	-1124.9	382.47	456.13	-1307	248.85	429.46	-1289.1	243.69	342.08	-1385	262.14	381.61	-1392.7	232.92	348.81	-1397.3	230.82	413.67	-1266.3	110.81	450.44	-1235.2	109.38	332.88	-1176.6	75.575	378.74	-1079	724.01	144.54	-1022.1	654.13	208.51	-1086.5	635.82	166.39	-1020.9	746.32	182.84	-1089.2	542.38	185.63	-1065.7	553.78	303.62	-1147.8	318.87	198.58	-1087.1	253.66	205.01	-1158	248.2	216.8	-1080.6	323.33	191.75	-1123.5	105.11	222.3	-1119.2	111.36	313	-1201.5	71.703	264.05	-1198.4	45.513	296.64	-1193.6	45.868	234.89	-1013.9	44.791	205.4	-997.71	49.629	323.45	-925.62	62.762	274.7	-1202.8	1550.9	301.41	-1276.7	1281.6	301.73
